<?xml version="1.0" encoding="UTF-8" standalone="no"?>
<svg width="100px" height="23px" viewBox="0 0 100 23" version="1.1" xmlns="http://www.w3.org/2000/svg" xmlns:xlink="http://www.w3.org/1999/xlink" xmlns:sketch="http://www.bohemiancoding.com/sketch/ns">
    <!-- Generator: Sketch 3.3.3 (12081) - http://www.bohemiancoding.com/sketch -->
    <title>logo</title>
    <desc>Created with Sketch.</desc>
    <defs></defs>
    <g id="Page-1" stroke="none" stroke-width="1" fill="none" fill-rule="evenodd" sketch:type="MSPage">
        <g id="logo" sketch:type="MSLayerGroup" fill="#000000">
            <path d="M97.977404,9.94629855 C98.2397444,9.94629855 98.6920708,9.99690229 98.6920708,9.66242931 C98.6920708,9.44669757 98.4097552,9.4098545 98.1827042,9.4098545 L97.6273948,9.4098545 L97.6273948,9.94629855 L97.977404,9.94629855 L97.977404,9.94629855 Z M98.9584063,11.2018484 L98.6086191,11.2018484 L97.977404,10.2383798 L97.6273948,10.2383798 L97.6273948,11.2018484 L97.333094,11.2018484 L97.333094,9.11777326 L98.2428517,9.11777326 C98.6217139,9.11777326 98.9859277,9.22053436 98.9859277,9.66797797 C98.9859277,10.0799102 98.6982853,10.233497 98.3276351,10.2383798 L98.9584063,11.2018484 L98.9584063,11.2018484 Z M99.6728513,10.1722398 C99.6728513,9.271582 98.9244485,8.55580539 98.0493145,8.55580539 C97.1726269,8.55580539 96.4277754,9.271582 96.4277754,10.1722398 C96.4277754,11.0726757 97.1726269,11.7833475 98.0493145,11.7833475 C98.9244485,11.7833475 99.6728513,11.0726757 99.6728513,10.1722398 L99.6728513,10.1722398 Z M96.1348063,10.1722398 C96.1348063,9.11244655 96.9790898,8.26217052 98.0493145,8.26217052 C99.1204271,8.26217052 99.96693,9.11244655 99.96693,10.1722398 C99.96693,11.232255 99.1204271,12.0760946 98.0493145,12.0760946 C96.9790898,12.0760946 96.1348063,11.232255 96.1348063,10.1722398 L96.1348063,10.1722398 Z" id="Fill-2" sketch:type="MSShapeGroup"></path>
            <path d="M0.0609398469,0 L2.85590878,0 L2.85590878,22.6238675 L0.0609398469,22.6238675 L0.0609398469,0 Z" id="Fill-3" sketch:type="MSShapeGroup"></path>
            <path d="M12.9049684,11.7094394 C12.5662785,10.9512711 11.8300828,10.2576891 10.9394126,10.2576891 C10.083144,10.2576891 9.16362076,10.9193108 9.16362076,11.8299562 C9.16362076,13.1274539 10.8186738,13.6115187 12.506353,14.3064323 C14.1931444,14.9989046 15.8468658,15.9978846 15.8468658,18.3838066 C15.8468658,21.0753486 13.641386,23.0100539 10.9735923,23.0100539 C8.54993942,23.0100539 6.65074549,21.6493015 5.88236763,19.4083104 L8.0587724,18.5052112 C8.67200985,19.8348911 9.3760233,20.7706164 11.0028892,20.7706164 C12.320584,20.7750553 13.3335466,19.8983677 13.3335466,18.5928799 C13.3335466,15.4241536 6.83185362,16.5125779 6.83185362,12.0405832 C6.83185362,9.64822476 8.79430222,8.01758577 11.1227402,8.01758577 C12.7800127,8.01758577 14.3125514,9.16371613 14.9604125,10.6454292 L12.9049684,11.7094394" id="Fill-4" sketch:type="MSShapeGroup"></path>
            <path d="M20.0569639,15.5142637 C20.0569639,18.4155449 22.1101885,20.7750553 25.1026896,20.7750553 C28.0940809,20.7750553 30.1508567,18.4155449 30.1508567,15.5142637 C30.1508567,12.6444989 28.0940809,10.2576891 25.1026896,10.2576891 C22.1101885,10.2576891 20.0569639,12.6444989 20.0569639,15.5142637 M17.6384158,15.5451143 C17.6384158,11.3725251 20.9303223,8.01758577 25.1026896,8.01758577 C29.2721715,8.01758577 32.5658537,11.3725251 32.5658537,15.5451143 C32.5658537,19.7143743 29.2402113,23.0100539 25.1026896,23.0100539 C20.95629,23.0100539 17.6384158,19.7143743 17.6384158,15.5451143" id="Fill-5" sketch:type="MSShapeGroup"></path>
            <path d="M38.1844226,22.6238675 L35.6992906,22.6238675 L35.6992906,10.7095716 L34.17452,10.7095716 L34.17452,8.48700206 L35.6992906,8.48700206 L35.6992906,3.40088215 L38.1844226,3.40088215 L38.1844226,8.48700206 L40.7927347,8.48700206 L40.7927347,10.7095716 L38.1844226,10.7095716 L38.1844226,22.6238675" id="Fill-6" sketch:type="MSShapeGroup"></path>
            <path d="M43.7839041,15.5142637 C43.7839041,18.4155449 45.8384604,20.7750553 48.8300737,20.7750553 C51.8210212,20.7750553 53.8769091,18.4155449 53.8769091,15.5142637 C53.8769091,12.6444989 51.8210212,10.2576891 48.8300737,10.2576891 C45.8384604,10.2576891 43.7839041,12.6444989 43.7839041,15.5142637 M41.3660219,15.5451143 C41.3660219,11.3725251 44.6617015,8.01758577 48.8300737,8.01758577 C53.0046604,8.01758577 56.2941256,11.3725251 56.2941256,15.5451143 C56.2941256,19.7143743 52.9718124,23.0100539 48.8300737,23.0100539 C44.6896667,23.0100539 41.3660219,19.7143743 41.3660219,15.5451143" id="Fill-7" sketch:type="MSShapeGroup"></path>
            <path d="M61.6738804,10.138282 L61.7329181,10.138282 C62.7372248,8.77641995 64.0418247,8.01802966 65.8087387,8.01802966 C69.762267,8.01802966 70.6769074,10.8571659 70.6769074,14.1874691 L70.6769074,22.6238675 L68.243045,22.6238675 L68.243045,14.6082792 C68.243045,12.3149088 68.061271,10.2587988 65.2330102,10.2587988 C61.8853951,10.2587988 61.6738804,13.3456271 61.6738804,15.8802531 L61.6738804,22.6238675 L59.2404618,22.6238675 L59.2404618,8.41242812 L61.6738804,8.41242812 L61.6738804,10.138282" id="Fill-8" sketch:type="MSShapeGroup"></path>
            <path d="M75.355534,8.50808695 L77.9425393,8.50808695 L77.9425393,22.6238675 L75.355534,22.6238675 L75.355534,8.50808695 Z M78.4880832,3.19025517 C78.4880832,4.15106042 77.6469069,4.90323621 76.6485928,4.90323621 C75.6416227,4.90323621 74.8044415,4.15106042 74.8044415,3.19025517 C74.8044415,2.26030045 75.6416227,1.47771803 76.6485928,1.47771803 C77.6469069,1.47771803 78.4880832,2.26030045 78.4880832,3.19025517 L78.4880832,3.19025517 Z" id="Fill-9" sketch:type="MSShapeGroup"></path>
            <path d="M81.1261361,8.40421611 L84.1517072,8.40421611 L87.950095,13.2455293 L91.7471512,8.40421611 L94.835755,8.40421611 L89.5239158,15.0619373 L95.5435416,22.6238675 L92.5477113,22.6238675 L87.950095,16.8457192 L83.3189649,22.6238675 L80.2285855,22.6238675 L86.4049054,15.0619373 L81.1261361,8.40421611" id="Fill-10" sketch:type="MSShapeGroup"></path>
        </g>
    </g>
</svg>